<?xml version="1.0" encoding="UTF-8" standalone="no"?>
<svg
   width="64pt"
   height="64pt"
   viewBox="0 0 22.577778 22.577778"
   version="1.1"
   id="svg831"
   inkscape:version="1.1.2 (1:1.1+202202050950+0a00cf5339)"
   sodipodi:docname="23 - Chest.svg"
   inkscape:export-filename="/media/taufikramadhan/Data/Tr Design Studio/Project Design/TR Creative Design/Icon Design/Project Hiring/Icon Icons/018 - Gym And Fitness/5 - Send/2 - Solid/SVG/23 - Chest.png"
   inkscape:export-xdpi="576"
   inkscape:export-ydpi="576"
   xmlns:inkscape="http://www.inkscape.org/namespaces/inkscape"
   xmlns:sodipodi="http://sodipodi.sourceforge.net/DTD/sodipodi-0.dtd"
   xmlns="http://www.w3.org/2000/svg"
   xmlns:svg="http://www.w3.org/2000/svg"
   xmlns:rdf="http://www.w3.org/1999/02/22-rdf-syntax-ns#"
   xmlns:cc="http://creativecommons.org/ns#"
   xmlns:dc="http://purl.org/dc/elements/1.1/">
  <defs
     id="defs825">
    <pattern
       id="EMFhbasepattern"
       patternUnits="userSpaceOnUse"
       width="6"
       height="6"
       x="0"
       y="0" />
    <pattern
       id="EMFhbasepattern-9"
       patternUnits="userSpaceOnUse"
       width="6"
       height="6"
       x="0"
       y="0" />
    <pattern
       id="EMFhbasepattern-0"
       patternUnits="userSpaceOnUse"
       width="6"
       height="6"
       x="0"
       y="0" />
    <pattern
       id="EMFhbasepattern-7"
       patternUnits="userSpaceOnUse"
       width="6"
       height="6"
       x="0"
       y="0" />
    <pattern
       id="EMFhbasepattern-2"
       patternUnits="userSpaceOnUse"
       width="6"
       height="6"
       x="0"
       y="0" />
    <pattern
       id="EMFhbasepattern-98"
       patternUnits="userSpaceOnUse"
       width="6"
       height="6"
       x="0"
       y="0" />
    <pattern
       id="EMFhbasepattern-6"
       patternUnits="userSpaceOnUse"
       width="6"
       height="6"
       x="0"
       y="0" />
    <pattern
       id="EMFhbasepattern-01"
       patternUnits="userSpaceOnUse"
       width="6"
       height="6"
       x="0"
       y="0" />
    <pattern
       id="EMFhbasepattern-07"
       patternUnits="userSpaceOnUse"
       width="6"
       height="6"
       x="0"
       y="0" />
    <pattern
       id="EMFhbasepattern-8"
       patternUnits="userSpaceOnUse"
       width="6"
       height="6"
       x="0"
       y="0" />
    <pattern
       id="EMFhbasepattern-4"
       patternUnits="userSpaceOnUse"
       width="6"
       height="6"
       x="0"
       y="0" />
    <pattern
       id="EMFhbasepattern-40"
       patternUnits="userSpaceOnUse"
       width="6"
       height="6"
       x="0"
       y="0" />
    <pattern
       id="EMFhbasepattern-08"
       patternUnits="userSpaceOnUse"
       width="6"
       height="6"
       x="0"
       y="0" />
    <pattern
       id="EMFhbasepattern-04"
       patternUnits="userSpaceOnUse"
       width="6"
       height="6"
       x="0"
       y="0" />
    <pattern
       id="EMFhbasepattern-014"
       patternUnits="userSpaceOnUse"
       width="6"
       height="6"
       x="0"
       y="0" />
    <pattern
       id="EMFhbasepattern-27"
       patternUnits="userSpaceOnUse"
       width="6"
       height="6"
       x="0"
       y="0" />
    <pattern
       id="EMFhbasepattern-09"
       patternUnits="userSpaceOnUse"
       width="6"
       height="6"
       x="0"
       y="0" />
    <pattern
       id="EMFhbasepattern-5"
       patternUnits="userSpaceOnUse"
       width="6"
       height="6"
       x="0"
       y="0" />
    <pattern
       id="EMFhbasepattern-018"
       patternUnits="userSpaceOnUse"
       width="6"
       height="6"
       x="0"
       y="0" />
  </defs>
  <sodipodi:namedview
     inkscape:lockguides="true"
     id="base"
     pagecolor="#ffffff"
     bordercolor="#666666"
     borderopacity="1.0"
     inkscape:pageopacity="0.0"
     inkscape:pageshadow="2"
     inkscape:zoom="4.4249417"
     inkscape:cx="42.599431"
     inkscape:cy="53.786019"
     inkscape:document-units="pt"
     inkscape:current-layer="layer1"
     showgrid="false"
     units="pt"
     inkscape:window-width="1366"
     inkscape:window-height="705"
     inkscape:window-x="0"
     inkscape:window-y="31"
     inkscape:window-maximized="1"
     inkscape:pagecheckerboard="true"
     inkscape:showpageshadow="false"
     inkscape:object-paths="true"
     inkscape:snap-intersection-paths="true"
     inkscape:snap-smooth-nodes="true"
     inkscape:snap-midpoints="true"
     showguides="false"
     inkscape:snap-bbox="true"
     inkscape:bbox-nodes="true"
     inkscape:snap-nodes="false"
     inkscape:snap-global="true"
     inkscape:document-rotation="0">
    <inkscape:grid
       type="xygrid"
       id="grid1378" />
    <sodipodi:guide
       position="0.97013831,21.607643"
       orientation="78.000048,0"
       id="guide1380"
       inkscape:locked="true" />
    <sodipodi:guide
       position="0.97013831,0.97013129"
       orientation="0,78.000005"
       id="guide1382"
       inkscape:locked="true" />
    <sodipodi:guide
       position="21.607639,0.97013129"
       orientation="-78.000048,0"
       id="guide1384"
       inkscape:locked="true" />
    <sodipodi:guide
       position="21.607639,21.607643"
       orientation="0,-78.000005"
       id="guide1386"
       inkscape:locked="true" />
  </sodipodi:namedview>
  <metadata
     id="metadata828">
    <rdf:RDF>
      <cc:Work
         rdf:about="">
        <dc:format>image/svg+xml</dc:format>
        <dc:type
           rdf:resource="http://purl.org/dc/dcmitype/StillImage" />
      </cc:Work>
    </rdf:RDF>
  </metadata>
  <g
     inkscape:label="Icon"
     inkscape:groupmode="layer"
     id="layer1"
     transform="translate(0,-274.42223)">
    <path
       id="path144976"
       style="color:#000000;display:inline;fill:#000000;stroke-width:0.999999;stroke-linecap:round;stroke-linejoin:round;stroke-miterlimit:10;-inkscape-stroke:none"
       d="m 2.0363976,286.4103 c 0,0 0.6751287,-0.003 1.4345869,-0.28914 0.2955045,-0.1115 0.5951192,-0.26327 0.8743747,-0.47193 0.3878447,-0.29105 0.7265906,-0.6901 0.9334558,-1.25666 -0.6850715,-0.67759 -1.062041,-1.36577 -1.062041,-1.36577 -0.096016,-0.1707 -0.036068,-0.38689 0.1341443,-0.48376 0.082041,-0.0468 0.1793033,-0.0591 0.2703767,-0.034 0.09087,0.0245 0.1683428,0.0839 0.2154666,0.16541 0,0 1.3916516,2.31174 3.2500613,2.31174 0.9059223,-0.005 1.6063602,-0.0121 2.8448471,-0.61789 v -2.22973 c 7.12e-4,-0.19047 0.15036,-0.34568 0.338489,-0.35448 0.0061,-2.8e-4 0.01264,-2e-5 0.01875,0 0.19558,7.2e-4 0.353764,0.1589 0.354475,0.35448 v 2.22834 c 1.241433,0.60777 1.942714,0.61419 2.850409,0.61928 1.857143,-0.003 3.246588,-2.31174 3.246585,-2.31174 0.06335,-0.11029 0.180726,-0.17838 0.30791,-0.17862 0.06266,-2.5e-4 0.124292,0.016 0.178627,0.0472 0.169197,0.0978 0.227843,0.31379 0.131367,0.48376 0,0 -0.372346,0.68121 -1.050917,1.35604 0.203,0.56212 0.534537,0.96199 0.913994,1.25178 0.01957,0.0121 0.03797,0.0256 0.0549,0.041 0.268512,0.19539 0.558999,0.33803 0.843796,0.44554 0.759458,0.2863 1.433892,0.28913 1.433892,0.28913 l 0.488492,0.0249 a 0.37241453,0.37241453 0 0 0 0.387895,-0.32174 l 0.177309,-1.30314 c -3.55e-4,-0.25721 -0.07256,-0.73743 -0.14457,-0.8855 -0.188936,-0.41032 -0.490426,-0.62099 -0.909126,-0.71729 -0.197654,7.1e-4 -0.358039,-0.15963 -0.357257,-0.35726 0,-0.9012 -0.322152,-1.45355 -1.278896,-2.17204 -0.583187,-0.39515 -1.316236,-0.55827 -1.801574,-0.62555 0.02668,0.10236 0.05005,0.20476 0.06741,0.30514 0.03263,0.19278 -0.09658,0.37605 -0.289142,0.41008 -0.193718,0.0343 -0.378189,-0.0954 -0.412164,-0.28915 -0.07985,-0.4614 -0.177912,-0.77753 -0.572724,-1.08428 -0.338557,-0.29595 -0.682271,-0.48736 -1.007892,-0.6131 -0.02523,-0.009 -0.05588,0.003 -0.07052,0.025 -0.0056,0.009 -0.01197,0.0173 -0.01979,0.0251 -0.13881,0.13802 -0.36302,0.13802 -0.501829,0 -0.375176,-0.37516 -0.559351,-0.90641 -0.682541,-1.41095 -0.123189,-0.50455 -0.172617,-0.98496 -0.18697,-1.25804 -0.007,-0.13194 -0.05225,-0.23451 -0.107735,-0.29679 -0.05548,-0.0623 -0.111918,-0.0952 -0.220331,-0.0952 l 1.8e-5,5e-5 -3.6358169,7e-4 c -0.1084251,0 -0.1655456,0.0322 -0.2210252,0.0945 -0.055522,0.0623 -0.1007424,0.16483 -0.1077351,0.29678 -0.014342,0.27308 -0.060305,0.7535 -0.1834918,1.25805 -0.1231865,0.50454 -0.3080594,1.03579 -0.6832388,1.41096 -0.1390478,0.13939 -0.3648628,0.13939 -0.5039106,0 -0.00473,-0.008 -0.00911,-0.0174 -0.0131,-0.0264 -0.011002,-0.0246 -0.037426,-0.0385 -0.062704,-0.0289 -0.3302122,0.12562 -0.6798262,0.31805 -1.0230914,0.61819 -0.3951471,0.3071 -0.4921635,0.62218 -0.572027,1.08359 -0.034021,0.19254 -0.2172885,0.32168 -0.4100828,0.28914 -0.1925558,-0.034 -0.3217567,-0.21659 -0.2891415,-0.40938 0.00512,-0.0296 0.010706,-0.0593 0.016725,-0.0892 0.024163,-0.11997 -0.048401,-0.20273 -0.1689335,-0.18135 -0.4698789,0.0834 -1.080521,0.25167 -1.581243,0.59097 -0.9567436,0.71849 -1.2823722,1.27153 -1.2823722,2.17273 7.118e-4,0.19661 -0.1577948,0.35694 -0.3572544,0.35726 -0.028078,-1.4e-4 -0.1393786,0.005 -0.3072159,0.0806 -0.1917765,0.0863 -0.4276982,0.25181 -0.6144249,0.63597 -0.070988,0.14605 -0.13961364,0.61572 -0.14179147,0.87507 l 0.19065187,1.31393 a 0.37565441,0.37565441 0 0 0 0.3908944,0.32123 z m 12.4330914,-6.407 c 0.161773,-0.0108 0.310087,0.09 0.360731,0.24396 0.06316,0.18718 -0.03824,0.39 -0.225894,0.45179 4e-6,0 -1.102503,0.37324 -2.249186,0.37324 -0.196542,-7.2e-4 -0.355245,-0.16072 -0.354476,-0.35726 3.55e-4,-0.19573 0.158752,-0.3544 0.354476,-0.35517 0.988514,0 2.023296,-0.33849 2.023296,-0.33849 0.02943,-0.009 0.06004,-0.016 0.09106,-0.018 z m -6.4104632,7.1e-4 c 0.046568,-0.003 0.09333,0.003 0.1376206,0.0174 0,0 1.034778,0.33848 2.0232936,0.33848 0.196812,-7.1e-4 0.356874,0.15836 0.357258,0.35518 7.12e-4,0.19762 -0.159631,0.35802 -0.357258,0.35726 -1.1466804,0 -2.2464076,-0.37326 -2.2464076,-0.37326 -0.1876449,-0.0617 -0.289049,-0.26459 -0.2258899,-0.45177 0.045102,-0.13656 0.1679691,-0.23255 0.3113833,-0.24327 z m 0.025017,3.56005 c 0.1965415,-7.1e-4 0.3564929,0.15794 0.3572579,0.35448 -3.559e-4,0.19681 -0.1604459,0.35594 -0.3572579,0.35517 -0.195723,-7.1e-4 -0.3540944,-0.15945 -0.3544751,-0.35517 7.117e-4,-0.19546 0.159019,-0.35371 0.3544751,-0.35448 z m 6.4069902,0 c 0.19654,-7.1e-4 0.356489,0.15794 0.357254,0.35448 -3.56e-4,0.19681 -0.160446,0.35594 -0.357254,0.35517 -0.195727,-7.1e-4 -0.354099,-0.15945 -0.354479,-0.35517 7.11e-4,-0.19546 0.159022,-0.35371 0.354479,-0.35448 z m 0.20506,12.0877 c 0.296676,0 0.654713,-0.28371 0.704085,-0.55952 0.09911,-0.55366 0.193621,-1.31356 0.275243,-2.12616 -0.534481,0.49824 -1.152372,1.04463 -1.749444,1.25387 -0.18555,0.0616 -0.386027,-0.0381 -0.449004,-0.22311 -0.0634,-0.18638 0.03657,-0.38883 0.223111,-0.45179 0.893534,-0.40448 1.474885,-1.05571 2.084456,-1.79669 0.06942,-1.00179 0.13368,-1.91047 0.143196,-2.84763 3.57e-4,-0.196 0.159172,-0.35479 0.355169,-0.35517 0.07511,1.8e-4 0.14723,0.0241 0.206813,0.0668 0.04767,0.0343 0.106672,0.0375 0.14288,-0.009 0.593369,-0.76159 0.929584,-1.81375 1.030682,-2.51284 -0.364162,-0.30746 -0.690683,-0.70476 -0.921641,-1.21356 l -3.2e-5,-7e-5 c -0.603909,0.45806 -1.361972,0.82086 -2.250574,0.82086 -0.0011,1e-5 -0.0017,1e-5 -0.0028,0 -0.91189,-0.005 -1.851709,-0.0952 -3.199322,-0.75135 -1.347713,0.65622 -2.2902647,0.74598 -3.2021051,0.75135 -0.8863924,0 -1.642694,-0.36174 -2.2464074,-0.81807 -0.2295552,0.50372 -0.5509205,0.89884 -0.9112141,1.20452 0.098511,0.70303 0.4276165,1.75849 1.0256216,2.5221 0.036309,0.0464 0.095019,0.0428 0.1423502,0.008 0.059721,-0.0439 0.1324039,-0.0685 0.2082318,-0.0689 0.1968119,-7.2e-4 0.3568771,0.15836 0.3572578,0.35516 0.00644,0.91787 0.075376,1.97642 0.1390301,2.79412 0.5935674,0.73843 1.2046722,1.5308 2.1074629,1.85027 0.1876448,0.0617 0.2890489,0.26459 0.2258898,0.45179 -0.062975,0.18543 -0.2639426,0.28514 -0.4496978,0.22311 -0.7229501,-0.29371 -1.2775431,-0.78106 -1.7723826,-1.2789 0.082177,0.82209 0.1778869,1.59181 0.2780207,2.15119 0.049377,0.27581 0.4046309,0.55951 0.7013097,0.55951 z m -4.118899,-2.48 c -0.283113,0 -0.54681,-0.0673 -0.7728996,-0.18419 -0.1748372,-0.0904 -0.2430425,-0.30564 -0.1522147,-0.48027 0.043658,-0.0831 0.1183472,-0.14551 0.2078189,-0.17376 0.090277,-0.0296 0.1886274,-0.0218 0.2731564,0.0215 0.126603,0.0655 0.269711,0.10491 0.444139,0.10491 h 0.354475 v -1.25872 h -0.711733 c -0.566105,0 -1.0365998,-0.275 -1.3344992,-0.65891 -0.1204078,-0.15512 -0.092412,-0.37844 0.062554,-0.49905 0.074725,-0.0576 0.169218,-0.083 0.2627326,-0.0709 0.093309,0.0121 0.1782642,0.0594 0.2363167,0.13342 0.1850648,0.23849 0.4239225,0.38368 0.7728959,0.38368 h 0.711733 v -1.23164 h -0.711733 c -0.5661015,0 -1.0365998,-0.27568 -1.3344992,-0.6596 -0.2978959,-0.38391 -0.4441357,-0.86915 -0.4441357,-1.35048 7.118e-4,-0.19655 0.1607165,-0.35525 0.3572544,-0.35448 0.1954562,7.1e-4 0.3537171,0.15902 0.3544787,0.35448 0,0.33329 0.1089415,0.67549 0.2940062,0.91398 0.1850613,0.2385 0.4239225,0.38368 0.7728956,0.38368 h 0.711733 v -2.1352 c -7.11e-4,-0.19763 0.159632,-0.35804 0.357258,-0.35726 v 10e-6 c 0.196542,7.2e-4 0.355244,0.16072 0.354475,0.35726 v 2.1352 h 0.711734 c 0.348977,0 0.58992,-0.14516 0.774985,-0.38366 0.185057,-0.2385 0.294699,-0.58071 0.294699,-0.914 7.13e-4,-0.19546 0.159023,-0.35371 0.354479,-0.35448 0.196538,-7.1e-4 0.356487,0.15795 0.357255,0.35448 0,0.48134 -0.146232,0.96659 -0.444139,1.3505 -0.297897,0.3839 -0.771174,0.65959 -1.337279,0.65959 h -0.711734 v 1.23163 h 0.711734 c 0.348973,0 0.58992,-0.14516 0.774985,-0.38366 0.120593,-0.15497 0.343926,-0.18296 0.499046,-0.0625 0.15519,0.12038 0.183502,0.34374 0.06324,0.49905 -0.297896,0.38392 -0.771169,0.6589 -1.337279,0.6589 h -0.711733 v 1.25874 h 0.357258 c 0.174511,0 0.317668,-0.0394 0.444139,-0.10491 0.174638,-0.0908 0.389834,-0.0226 0.480282,0.15222 0.09083,0.17463 0.02264,0.38983 -0.152219,0.48027 -0.226221,0.11702 -0.489174,0.18419 -0.772202,0.18419 z"
       sodipodi:nodetypes="cscccccccccscccccccccccccccccccccscccccssscccccscccccccccccsscccscsccccsssccccccsscccccccccccsccsccccccscscccccccccccccscccccccsccsccccsccsscccssccssccsscccssccscccsccsccccc" />
  </g>
</svg>
